<mxfile host="app.diagrams.net" modified="2023-03-26T06:44:19.411Z" agent="Mozilla/5.0 (Windows NT 10.0; Win64; x64) AppleWebKit/537.36 (KHTML, like Gecko) Chrome/101.0.0.0 Safari/537.36" version="21.1.1" etag="09-qa4q5XyOJh6VCXrfr" type="github">
  <diagram name="第 1 页" id="JuPUj2j9Y0bYAIlRyvc1">
    <mxGraphModel>
      <root>
        <mxCell id="0" />
        <mxCell id="1" parent="0" />
      </root>
    </mxGraphModel>
  </diagram>
</mxfile>
